<?xml version="1.0" encoding="UTF-8" standalone="no"?>
<!DOCTYPE svg PUBLIC "-//W3C//DTD SVG 1.1//EN"
 "http://www.w3.org/Graphics/SVG/1.1/DTD/svg11.dtd">
<!-- Generated by graphviz version 2.43.0 (0)
 -->
<!-- Title: FetchMWorkflow Pages: 1 -->
<svg width="623pt" height="756pt"
 viewBox="0.00 0.00 623.01 755.54" xmlns="http://www.w3.org/2000/svg" xmlns:xlink="http://www.w3.org/1999/xlink">
<g id="graph0" class="graph" transform="scale(1 1) rotate(0) translate(18 737.54)">
<title>FetchMWorkflow</title>
<polygon fill="white" stroke="transparent" points="-18,18 -18,-737.54 605.01,-737.54 605.01,18 -18,18"/>
<!-- start -->
<g id="node1" class="node">
<title>start</title>
<ellipse fill="#dbeafe" stroke="#1f2937" stroke-width="1.1" cx="386.9" cy="-701.15" rx="36.54" ry="18.27"/>
<text text-anchor="middle" x="386.9" y="-698.35" font-family="Helvetica,sans-Serif" font-size="11.00">Start</text>
</g>
<!-- input -->
<g id="node2" class="node">
<title>input</title>
<path fill="#e0f2fe" stroke="#1f2937" stroke-width="1.1" d="M466.4,-651.77C466.4,-651.77 307.4,-651.77 307.4,-651.77 301.4,-651.77 295.4,-645.77 295.4,-639.77 295.4,-639.77 295.4,-625.77 295.4,-625.77 295.4,-619.77 301.4,-613.77 307.4,-613.77 307.4,-613.77 466.4,-613.77 466.4,-613.77 472.4,-613.77 478.4,-619.77 478.4,-625.77 478.4,-625.77 478.4,-639.77 478.4,-639.77 478.4,-645.77 472.4,-651.77 466.4,-651.77"/>
<text text-anchor="middle" x="386.9" y="-635.97" font-family="Helvetica,sans-Serif" font-size="11.00">Download ncbi_dataset.tsv</text>
<text text-anchor="middle" x="386.9" y="-623.97" font-family="Helvetica,sans-Serif" font-size="11.00">from NCBI Genome Datasets</text>
</g>
<!-- start&#45;&gt;input -->
<g id="edge1" class="edge">
<title>start&#45;&gt;input</title>
<path fill="none" stroke="#334155" stroke-width="1.1" d="M386.9,-682.71C386.9,-675.57 386.9,-667.15 386.9,-659.34"/>
<polygon fill="#334155" stroke="#334155" stroke-width="1.1" points="389.52,-659.29 386.9,-651.79 384.27,-659.29 389.52,-659.29"/>
</g>
<!-- command -->
<g id="node3" class="node">
<title>command</title>
<path fill="#ede9fe" stroke="#1f2937" stroke-width="1.1" d="M506.9,-582.77C506.9,-582.77 266.9,-582.77 266.9,-582.77 260.9,-582.77 254.9,-576.77 254.9,-570.77 254.9,-570.77 254.9,-556.77 254.9,-556.77 254.9,-550.77 260.9,-544.77 266.9,-544.77 266.9,-544.77 506.9,-544.77 506.9,-544.77 512.9,-544.77 518.9,-550.77 518.9,-556.77 518.9,-556.77 518.9,-570.77 518.9,-570.77 518.9,-576.77 512.9,-582.77 506.9,-582.77"/>
<text text-anchor="middle" x="386.9" y="-566.97" font-family="Helvetica,sans-Serif" font-size="11.00">Choose workflow</text>
<text text-anchor="middle" x="386.9" y="-554.97" font-family="Helvetica,sans-Serif" font-size="11.00">fetchm metadata | fetchm run | fetchm seq</text>
</g>
<!-- input&#45;&gt;command -->
<g id="edge2" class="edge">
<title>input&#45;&gt;command</title>
<path fill="none" stroke="#334155" stroke-width="1.1" d="M386.9,-613.46C386.9,-606.52 386.9,-598.47 386.9,-590.94"/>
<polygon fill="#334155" stroke="#334155" stroke-width="1.1" points="389.52,-590.56 386.9,-583.06 384.27,-590.56 389.52,-590.56"/>
</g>
<!-- prep -->
<g id="node4" class="node">
<title>prep</title>
<path fill="#fef3c7" stroke="#1f2937" stroke-width="1.1" d="M493.4,-513.77C493.4,-513.77 280.4,-513.77 280.4,-513.77 274.4,-513.77 268.4,-507.77 268.4,-501.77 268.4,-501.77 268.4,-475.77 268.4,-475.77 268.4,-469.77 274.4,-463.77 280.4,-463.77 280.4,-463.77 493.4,-463.77 493.4,-463.77 499.4,-463.77 505.4,-469.77 505.4,-475.77 505.4,-475.77 505.4,-501.77 505.4,-501.77 505.4,-507.77 499.4,-513.77 493.4,-513.77"/>
<text text-anchor="middle" x="386.9" y="-497.97" font-family="Helvetica,sans-Serif" font-size="11.00">Load input, validate required columns,</text>
<text text-anchor="middle" x="386.9" y="-485.97" font-family="Helvetica,sans-Serif" font-size="11.00">and optionally filter by ANI status</text>
<text text-anchor="middle" x="386.9" y="-473.97" font-family="Helvetica,sans-Serif" font-size="11.00">and CheckM completeness</text>
</g>
<!-- command&#45;&gt;prep -->
<g id="edge3" class="edge">
<title>command&#45;&gt;prep</title>
<path fill="none" stroke="#334155" stroke-width="1.1" d="M386.9,-544.72C386.9,-537.76 386.9,-529.57 386.9,-521.68"/>
<polygon fill="#334155" stroke="#334155" stroke-width="1.1" points="389.52,-521.44 386.9,-513.94 384.27,-521.44 389.52,-521.44"/>
</g>
<!-- metadata -->
<g id="node5" class="node">
<title>metadata</title>
<path fill="#fee2e2" stroke="#1f2937" stroke-width="1.1" d="M487.9,-432.77C487.9,-432.77 285.9,-432.77 285.9,-432.77 279.9,-432.77 273.9,-426.77 273.9,-420.77 273.9,-420.77 273.9,-382.77 273.9,-382.77 273.9,-376.77 279.9,-370.77 285.9,-370.77 285.9,-370.77 487.9,-370.77 487.9,-370.77 493.9,-370.77 499.9,-376.77 499.9,-382.77 499.9,-382.77 499.9,-420.77 499.9,-420.77 499.9,-426.77 493.9,-432.77 487.9,-432.77"/>
<text text-anchor="middle" x="386.9" y="-416.97" font-family="Helvetica,sans-Serif" font-size="11.00">Retrieve linked BioSample metadata</text>
<text text-anchor="middle" x="386.9" y="-404.97" font-family="Helvetica,sans-Serif" font-size="11.00">and standardize key fields</text>
<text text-anchor="middle" x="386.9" y="-392.97" font-family="Helvetica,sans-Serif" font-size="11.00">Isolation Source | Collection Date |</text>
<text text-anchor="middle" x="386.9" y="-380.97" font-family="Helvetica,sans-Serif" font-size="11.00">Geographic Location | Host</text>
</g>
<!-- prep&#45;&gt;metadata -->
<g id="edge4" class="edge">
<title>prep&#45;&gt;metadata</title>
<path fill="none" stroke="#334155" stroke-width="1.1" d="M386.9,-463.64C386.9,-456.5 386.9,-448.5 386.9,-440.71"/>
<polygon fill="#334155" stroke="#334155" stroke-width="1.1" points="389.52,-440.53 386.9,-433.03 384.27,-440.53 389.52,-440.53"/>
</g>
<!-- outputs -->
<g id="node6" class="node">
<title>outputs</title>
<path fill="#d1fae5" stroke="#1f2937" stroke-width="1.1" d="M499.4,-339.77C499.4,-339.77 274.4,-339.77 274.4,-339.77 268.4,-339.77 262.4,-333.77 262.4,-327.77 262.4,-327.77 262.4,-289.77 262.4,-289.77 262.4,-283.77 268.4,-277.77 274.4,-277.77 274.4,-277.77 499.4,-277.77 499.4,-277.77 505.4,-277.77 511.4,-283.77 511.4,-289.77 511.4,-289.77 511.4,-327.77 511.4,-327.77 511.4,-333.77 505.4,-339.77 499.4,-339.77"/>
<text text-anchor="middle" x="386.9" y="-323.97" font-family="Helvetica,sans-Serif" font-size="11.00">Create core outputs</text>
<text text-anchor="middle" x="386.9" y="-311.97" font-family="Helvetica,sans-Serif" font-size="11.00">updated TSV | ncbi_clean.csv |</text>
<text text-anchor="middle" x="386.9" y="-299.97" font-family="Helvetica,sans-Serif" font-size="11.00">summary tables | harmonization report |</text>
<text text-anchor="middle" x="386.9" y="-287.97" font-family="Helvetica,sans-Serif" font-size="11.00">figures and geographic map</text>
</g>
<!-- metadata&#45;&gt;outputs -->
<g id="edge5" class="edge">
<title>metadata&#45;&gt;outputs</title>
<path fill="none" stroke="#334155" stroke-width="1.1" d="M386.9,-370.72C386.9,-363.27 386.9,-355.18 386.9,-347.41"/>
<polygon fill="#334155" stroke="#334155" stroke-width="1.1" points="389.52,-347.29 386.9,-339.79 384.27,-347.29 389.52,-347.29"/>
</g>
<!-- decision -->
<g id="node7" class="node">
<title>decision</title>
<path fill="#fef3c7" stroke="#1f2937" stroke-width="1.1" d="M375.57,-242.82C375.57,-242.82 289.23,-212.72 289.23,-212.72 283.56,-210.74 283.56,-206.79 289.23,-204.82 289.23,-204.82 375.57,-174.72 375.57,-174.72 381.23,-172.74 392.56,-172.74 398.23,-174.72 398.23,-174.72 484.57,-204.82 484.57,-204.82 490.23,-206.79 490.23,-210.74 484.57,-212.72 484.57,-212.72 398.23,-242.82 398.23,-242.82 392.56,-244.79 381.23,-244.79 375.57,-242.82"/>
<text text-anchor="middle" x="386.9" y="-211.97" font-family="Helvetica,sans-Serif" font-size="11.00">Need sequence</text>
<text text-anchor="middle" x="386.9" y="-199.97" font-family="Helvetica,sans-Serif" font-size="11.00">downloads?</text>
</g>
<!-- outputs&#45;&gt;decision -->
<g id="edge6" class="edge">
<title>outputs&#45;&gt;decision</title>
<path fill="none" stroke="#334155" stroke-width="1.1" d="M386.9,-277.57C386.9,-270.31 386.9,-262.41 386.9,-254.65"/>
<polygon fill="#334155" stroke="#334155" stroke-width="1.1" points="389.52,-254.46 386.9,-246.96 384.27,-254.46 389.52,-254.46"/>
</g>
<!-- seq -->
<g id="node8" class="node">
<title>seq</title>
<path fill="#e0f2fe" stroke="#1f2937" stroke-width="1.1" d="M289.9,-129.77C289.9,-129.77 67.9,-129.77 67.9,-129.77 61.9,-129.77 55.9,-123.77 55.9,-117.77 55.9,-117.77 55.9,-79.77 55.9,-79.77 55.9,-73.77 61.9,-67.77 67.9,-67.77 67.9,-67.77 289.9,-67.77 289.9,-67.77 295.9,-67.77 301.9,-73.77 301.9,-79.77 301.9,-79.77 301.9,-117.77 301.9,-117.77 301.9,-123.77 295.9,-129.77 289.9,-129.77"/>
<text text-anchor="middle" x="178.9" y="-113.97" font-family="Helvetica,sans-Serif" font-size="11.00">Filter by host, year, country,</text>
<text text-anchor="middle" x="178.9" y="-101.97" font-family="Helvetica,sans-Serif" font-size="11.00">continent, or subcontinent;</text>
<text text-anchor="middle" x="178.9" y="-89.97" font-family="Helvetica,sans-Serif" font-size="11.00">resolve FTP paths; download FASTA files</text>
<text text-anchor="middle" x="178.9" y="-77.97" font-family="Helvetica,sans-Serif" font-size="11.00">with retries and audit failures</text>
</g>
<!-- decision&#45;&gt;seq -->
<g id="edge8" class="edge">
<title>decision&#45;&gt;seq</title>
<path fill="none" stroke="#334155" stroke-width="1.1" d="M344.05,-185.52C315.07,-170.48 276.27,-150.33 243.56,-133.34"/>
<polygon fill="#334155" stroke="#334155" stroke-width="1.1" points="244.54,-130.9 236.68,-129.77 242.12,-135.56 244.54,-130.9"/>
<text text-anchor="middle" x="290.9" y="-147.77" font-family="Helvetica,sans-Serif" font-size="10.00">Yes</text>
</g>
<!-- end_meta -->
<g id="node9" class="node">
<title>end_meta</title>
<ellipse fill="#dbeafe" stroke="#1f2937" stroke-width="1.1" cx="456.9" cy="-98.77" rx="130.22" ry="18.27"/>
<text text-anchor="middle" x="456.9" y="-95.97" font-family="Helvetica,sans-Serif" font-size="11.00">Metadata workflow complete</text>
</g>
<!-- decision&#45;&gt;end_meta -->
<g id="edge7" class="edge">
<title>decision&#45;&gt;end_meta</title>
<path fill="none" stroke="#334155" stroke-width="1.1" d="M406.58,-177.4C417.62,-160.37 431.19,-139.43 441.46,-123.59"/>
<polygon fill="#334155" stroke="#334155" stroke-width="1.1" points="443.76,-124.86 445.64,-117.14 439.36,-122.01 443.76,-124.86"/>
<text text-anchor="middle" x="432.9" y="-147.77" font-family="Helvetica,sans-Serif" font-size="10.00">No</text>
</g>
<!-- end_all -->
<g id="node10" class="node">
<title>end_all</title>
<ellipse fill="#dbeafe" stroke="#1f2937" stroke-width="1.1" cx="178.9" cy="-18.38" rx="178.8" ry="18.27"/>
<text text-anchor="middle" x="178.9" y="-15.58" font-family="Helvetica,sans-Serif" font-size="11.00">Metadata + sequence workflow complete</text>
</g>
<!-- seq&#45;&gt;end_all -->
<g id="edge9" class="edge">
<title>seq&#45;&gt;end_all</title>
<path fill="none" stroke="#334155" stroke-width="1.1" d="M178.9,-67.69C178.9,-60.08 178.9,-51.98 178.9,-44.64"/>
<polygon fill="#334155" stroke="#334155" stroke-width="1.1" points="181.52,-44.52 178.9,-37.02 176.27,-44.52 181.52,-44.52"/>
</g>
</g>
</svg>
